<?xml version="1.0" encoding="utf-8"?>
<!-- Generator: Adobe Illustrator 16.0.0, SVG Export Plug-In . SVG Version: 6.00 Build 0)  -->
<!DOCTYPE svg PUBLIC "-//W3C//DTD SVG 1.1//EN" "http://www.w3.org/Graphics/SVG/1.1/DTD/svg11.dtd">
<svg version="1.1" xmlns="http://www.w3.org/2000/svg" xmlns:xlink="http://www.w3.org/1999/xlink" x="0px" y="0px" width="2256px"
	 height="798px" viewBox="0 0 2256 798" enable-background="new 0 0 2256 798" xml:space="preserve">
<g id="Shape_13_copy_1_" enable-background="new    ">
	<g id="Shape_13_copy">
		<g>
			<path fill-rule="evenodd" clip-rule="evenodd" fill="#FFFFFF" d="M1258.699,380.847l-1.668,1.666l0.738-2.237
				c0,0-34.129-13.682-57.335-21.316c-10.113-3.327-16.921-4.466-20.318-4.857c4.271-4.708,11.066-13.003,16.545-23.407
				c14.29-27.138,34.901-52.761,34.901-52.761l-0.627-0.208c9.33-3.425,38.017-14.045,65.714-25.229
				c30.049-12.133,59.592-24.705,64.346-26.732l53.002,13.003c0,0-9.46-6.311-23.02-8.883c-16.088-3.052-29.622-8.882-29.622-8.882
				l-0.563,2.287l-0.884-2.184c0,0-31.82,16.05-65.146,29.506c-21.729,8.773-50.731,18.167-58.483,20.728
				c-6.97,2.302-10.376,4.711-10.376,4.711s-27.536,34.798-43.392,58.413c-1.812,2.699-3.305,5.167-4.556,7.406
				c-3.236-12.907-10.702-26.532-20.61-36.551c0.924-0.578,10.326-6.836,17.62-26.442c5.241-14.087,8.712-26.269,8.712-26.269
				l-2.109-1.054h2.83c0,0,1.887-50.493,1.887-98.926c0-45.2-1.887-88.562-1.887-88.562h-2.83l2.117-1.039
				c0,0-6.787-6.357-18.152-30.053c-10.672-22.248-20.753-32.032-20.753-32.032s10.081,13.427,16.979,32.975
				c5.066,14.357,17.692,31.188,17.692,31.188l0.313-0.153c0.631,6.864,4.635,52.479,3.69,95.214
				c-0.413,18.711-1.228,39.236-1.994,56.088c-0.79,17.39-1.53,30.856-1.728,34.384l-0.274-0.137c0,0-6.753,14.988-13.926,29.318
				c-4.734,9.455-9.893,18.798-11.759,22.144c-4.294-3.746-8.965-6.795-13.887-8.853c2.967-7.148,9.543-26.558-1.226-37.313
				c-11.251-11.236-3.567,24.803-0.849,36.51c-3.846-1.368-7.831-2.125-11.898-2.125c-4.462,0-8.795,0.911-12.938,2.54
				c2.625-11.237,10.636-48.299-0.752-36.926c-10.963,10.95-3.95,30.868-1.069,37.688c-4.004,1.802-7.814,4.276-11.376,7.246
				c-1.99-3.574-6.995-12.662-11.596-21.854c-7.174-14.329-13.927-29.317-13.927-29.317l-0.274,0.137
				c-0.197-3.526-0.937-16.994-1.728-34.385c-0.767-16.852-1.58-37.377-1.994-56.088c-0.944-42.734,3.06-88.35,3.691-95.214
				l0.312,0.153c0,0,12.626-16.83,17.693-31.188C1098.855,13.427,1108.936,0,1108.936,0s-10.08,9.785-20.752,32.033
				c-11.366,23.695-18.152,30.052-18.152,30.052l2.117,1.039h-2.831c0,0-1.886,43.362-1.886,88.562
				c0,48.433,1.886,98.926,1.886,98.926h2.831l-2.11,1.054c0,0,3.472,12.183,8.713,26.269c6.729,18.087,15.257,24.817,17.262,26.205
				c-11.432,11.212-19.752,27.446-22.697,42.082c-1.559-3.218-3.744-7.163-6.828-11.757c-15.855-23.615-43.392-58.413-43.392-58.413
				s-3.406-2.409-10.376-4.711c-7.752-2.561-36.755-11.954-58.483-20.728c-33.326-13.456-65.146-29.506-65.146-29.506l-0.884,2.184
				l-0.563-2.287c0,0-13.534,5.83-29.623,8.882c-13.559,2.572-23.02,8.883-23.02,8.883l53.003-13.003
				c4.754,2.028,34.297,14.6,64.346,26.732c27.698,11.184,56.384,21.804,65.713,25.229l-0.626,0.208c0,0,20.61,25.623,34.901,52.761
				c5.83,11.071,13.148,19.751,17.332,24.266c-3.055,0.297-10.135,1.331-21.105,4.94c-23.206,7.636-57.335,21.317-57.335,21.317
				l0.738,2.237l-1.667-1.666c0,0-11.009,13.385-23.801,26.161c-14.034,14.017-30.186,29.207-30.186,29.207h0.943l0.943,39.57
				c0,0,0.222-3.325,1.661-16.346c1.199-10.856-1.661-23.225-1.661-23.225h0.943c0,0,13.149-10.308,27.355-24.496
				c11.803-11.789,25.348-25.703,26.973-27.373c3.011-1.564,14.503-7.331,25.852-10.313c9.503-2.497,48.001-14.001,53.018-15.501
				c1.529,10.787,12.154,35.498,27.315,51.01c-8.002,4.261-25.49,14.403-52.035,34.21c-42.288,31.554-104.704,84.793-104.704,84.793
				s-1.697,10.045-2.271,26.902c-0.241,7.082,0.493,16.142,0.385,24.916c-0.518,41.95,1.887,122.479,1.887,122.479h1.887
				c0,0,12.4,10.706,28.298,24.496c21.985,19.068,51.4,44.567,66.94,58.544c6.981,6.279,10.409,10.232,10.409,10.232
				s-7.502-11.285-25.324-25.674c-9.945-8.03-77.494-67.599-77.494-67.599s-2.607-36.269-2.829-61.24
				c-0.4-45.05,2.829-100.462,2.829-109.789c0-0.906,0.943-1.384,0.943-1.384l-2.83-0.942c0.226,0.293,23.236-15.978,65.086-47.107
				c14.535-10.812,36.978-25.128,55.719-38.927c-12.667,18.726-20.453,45.334-20.818,79.439
				c-0.357,33.434,35.897,99.867,80.18,99.867c44.281,0,80.179-66.434,80.179-99.867c0-30.051-6.024-54.278-16.172-72.427
				c16.716,11.838,34.891,23.625,47.301,32.856c41.854,31.133,64.864,47.402,65.086,47.107l0,0l-2.829,0.942
				c0,0,0.943,0.478,0.943,1.384c0,9.327,3.229,64.739,2.829,109.789c-0.222,24.972-2.829,61.24-2.829,61.24
				s-67.55,59.568-77.495,67.598c-17.821,14.39-25.323,25.675-25.323,25.675s3.428-3.953,10.409-10.232
				c15.54-13.977,44.955-39.476,66.94-58.545c15.897-13.789,28.298-24.495,28.298-24.495h1.887c0,0,2.404-80.529,1.887-122.479
				c-0.108-8.774,0.626-17.834,0.385-24.916c-0.574-16.857-2.271-26.902-2.271-26.902s-62.416-53.239-104.704-84.793
				c-24.746-18.465-41.63-28.537-50.289-33.269c16.091-15.371,27.403-41.843,29.272-53.012
				c10.319,3.081,41.793,12.452,50.258,14.677c11.348,2.981,22.841,8.748,25.852,10.313c1.625,1.671,15.17,15.584,26.973,27.373
				c14.206,14.189,27.355,24.496,27.355,24.496h0.943c0,0-2.861,12.368-1.661,23.225c1.439,13.021,1.661,16.346,1.661,16.346
				l0.943-39.57h0.943c0,0-16.151-15.189-30.186-29.207C1269.708,394.231,1258.699,380.847,1258.699,380.847z M1104.526,414.997
				c-0.45,0.143-0.9,0.287-1.347,0.439c0.328-0.276,0.638-0.54,0.93-0.788C1104.248,414.766,1104.387,414.881,1104.526,414.997z"/>
		</g>
	</g>
</g>
<g id="SPINDELWEBBEN_xA0_Image_1_">
	
		<image overflow="visible" width="2248" height="148" id="SPINDELWEBBEN_xA0_Image" xlink:href="8CA864DE.png"  transform="matrix(1 0 0 1 0 391)">
	</image>
</g>
</svg>
