<?xml version="1.0" encoding="utf-8"?>
<!-- Generator: Adobe Illustrator 16.0.0, SVG Export Plug-In . SVG Version: 6.00 Build 0)  -->
<!DOCTYPE svg PUBLIC "-//W3C//DTD SVG 1.1//EN" "http://www.w3.org/Graphics/SVG/1.1/DTD/svg11.dtd">
<svg version="1.1" id="Layer_1" xmlns="http://www.w3.org/2000/svg" xmlns:xlink="http://www.w3.org/1999/xlink" x="0px" y="0px"
	 width="908px" height="847px" viewBox="0 0 908 847" enable-background="new 0 0 908 847" xml:space="preserve">
<g id="Shape_13_copy_1_" enable-background="new    ">
	<g id="Shape_13_copy">
		<g>
			<path fill="#FFFFFF" d="M567.99,405.476l-1.74,1.742l0.771-2.34c0,0-35.667-14.314-59.917-22.303
				c-10.567-3.482-17.684-4.673-21.232-5.081c4.464-4.927,11.565-13.605,17.29-24.492c14.934-28.394,36.473-55.203,36.473-55.203
				l-0.654-0.219c9.748-3.583,39.727-14.695,68.671-26.396c31.4-12.694,62.272-25.847,67.242-27.969l55.39,13.604
				c0,0-9.885-6.602-24.055-9.293c-16.812-3.192-30.958-9.292-30.958-9.292l-0.587,2.392l-0.924-2.285
				c0,0-33.251,16.794-68.08,30.872c-22.709,9.181-53.017,19.008-61.117,21.687c-7.284,2.408-10.845,4.929-10.845,4.929
				s-28.774,36.409-45.344,61.117c-1.894,2.823-3.453,5.405-4.762,7.749c-3.381-13.503-11.182-27.759-21.535-38.243
				c0.964-0.604,10.789-7.151,18.411-27.666c5.478-14.738,9.105-27.484,9.105-27.484l-2.205-1.102h2.959
				c0,0,1.972-52.832,1.972-103.506c0-47.293-1.972-92.662-1.972-92.662h-2.959l2.212-1.087c0,0-7.093-6.65-18.97-31.442
				c-11.151-23.278-21.685-33.516-21.685-33.516s10.534,14.048,17.742,34.501c5.296,15.021,18.488,32.631,18.488,32.631l0.329-0.16
				c0.659,7.184,4.844,54.908,3.857,99.622c-0.433,19.576-1.283,41.053-2.084,58.685c-0.827,18.195-1.601,32.286-1.807,35.975
				l-0.288-0.144c0,0-7.056,15.683-14.553,30.675c-4.947,9.894-10.337,19.669-12.285,23.169c-4.49-3.919-9.37-7.11-14.515-9.263
				c3.101-7.48,9.974-27.786-1.281-39.04c-11.757-11.757-3.727,25.952-0.886,38.2c-4.02-1.431-8.183-2.223-12.435-2.223
				c-4.663,0-9.191,0.952-13.521,2.657c2.744-11.755,11.116-50.535-0.785-38.635c-11.458,11.458-4.128,32.297-1.118,39.432
				c-4.183,1.885-8.166,4.474-11.888,7.581c-2.081-3.739-7.311-13.249-12.119-22.866c-7.496-14.993-14.554-30.675-14.554-30.675
				l-0.287,0.144c-0.207-3.691-0.979-17.782-1.806-35.977c-0.803-17.631-1.652-39.107-2.085-58.683
				c-0.987-44.712,3.198-92.438,3.857-99.622l0.327,0.16c0,0,13.194-17.609,18.488-32.631c7.209-20.454,17.745-34.501,17.745-34.501
				s-10.535,10.237-21.687,33.516c-11.877,24.792-18.97,31.442-18.97,31.442l2.213,1.089h-2.957c0,0-1.972,45.369-1.972,92.661
				c0,50.675,1.972,103.504,1.972,103.504h2.957l-2.205,1.103c0,0,3.629,12.747,9.105,27.485
				c7.033,18.925,15.943,25.965,18.039,27.418c-11.946,11.73-20.64,28.716-23.718,44.029c-1.63-3.368-3.913-7.494-7.135-12.301
				c-16.57-24.708-45.346-61.117-45.346-61.117s-3.561-2.521-10.843-4.929c-8.101-2.679-38.409-12.507-61.118-21.687
				c-34.827-14.078-68.08-30.872-68.08-30.872l-0.923,2.286l-0.587-2.392c0,0-14.144,6.099-30.958,9.292
				c-14.169,2.69-24.056,9.293-24.056,9.293l55.39-13.604c4.97,2.122,35.842,15.274,67.243,27.968
				c28.944,11.703,58.922,22.814,68.672,26.396l-0.656,0.219c0,0,21.54,26.809,36.473,55.203
				c6.092,11.583,13.74,20.666,18.113,25.388c-3.193,0.312-10.591,1.394-22.056,5.171c-24.251,7.988-59.917,22.303-59.917,22.303
				l0.771,2.342l-1.745-1.744c0,0-11.503,14.003-24.872,27.373c-14.665,14.666-31.543,30.56-31.543,30.56h0.985l0.986,41.399
				c0,0,0.231-3.478,1.735-17.1c1.256-11.359-1.734-24.3-1.734-24.3h0.986c0,0,13.741-10.785,28.586-25.631
				c12.333-12.334,26.488-26.891,28.187-28.64c3.146-1.636,15.156-7.67,27.016-10.791c9.932-2.612,50.164-14.648,55.405-16.218
				c1.6,11.287,12.702,37.141,28.546,53.374c-8.364,4.456-26.639,15.069-54.378,35.792
				c-44.193,33.015-109.419,88.719-109.419,88.719s-1.773,10.51-2.374,28.148c-0.252,7.409,0.515,16.889,0.401,26.067
				c-0.541,43.894,1.972,128.149,1.972,128.149h1.972c0,0,12.958,11.2,29.573,25.63c22.975,19.951,53.715,46.632,69.954,61.253
				c7.297,6.569,10.879,10.708,10.879,10.708s-7.84-11.81-26.465-26.865c-10.393-8.4-80.984-70.727-80.984-70.727
				s-2.726-37.947-2.957-64.073c-0.418-47.136,2.957-105.112,2.957-114.871c0-0.949,0.986-1.45,0.986-1.45l-2.957-0.985
				c0.231,0.309,24.277-16.713,68.018-49.288c15.186-11.309,38.629-26.282,58.209-40.714c-13.229,19.591-21.355,47.43-21.736,83.103
				c-0.374,34.98,37.515,104.49,83.79,104.49c46.275,0,83.789-69.51,83.789-104.49c0-31.434-6.288-56.784-16.888-75.771
				c17.464,12.383,36.452,24.713,49.418,34.368c43.74,32.573,67.785,49.596,68.018,49.287l-2.957,0.985c0,0,0.987,0.5,0.987,1.45
				c0,9.757,3.373,67.734,2.955,114.87c-0.232,26.126-2.955,64.074-2.955,64.074s-70.592,62.326-80.986,70.728
				c-18.622,15.056-26.463,26.864-26.463,26.864s3.582-4.137,10.878-10.707c16.241-14.623,46.979-41.302,69.955-61.255
				c16.612-14.428,29.571-25.63,29.571-25.63h1.974c0,0,2.511-84.256,1.971-128.149c-0.115-9.179,0.653-18.658,0.402-26.067
				c-0.603-17.638-2.373-28.148-2.373-28.148s-65.228-55.703-109.421-88.719c-25.86-19.318-43.505-29.855-52.554-34.809
				c16.816-16.082,28.638-43.78,30.592-55.465c10.785,3.224,43.674,13.028,52.521,15.356c11.86,3.121,23.87,9.155,27.016,10.791
				c1.701,1.75,15.854,16.307,28.186,28.64c14.848,14.848,28.588,25.63,28.588,25.63h0.988c0,0-2.992,12.942-1.738,24.301
				c1.503,13.622,1.738,17.102,1.738,17.102l0.984-41.402h0.984c0,0-16.878-15.893-31.545-30.558
				C579.496,419.479,567.99,405.476,567.99,405.476z M406.857,441.188c-0.452,0.146-0.902,0.296-1.352,0.45
				c0.329-0.279,0.642-0.545,0.938-0.797C406.581,440.959,406.718,441.073,406.857,441.188z"/>
		</g>
	</g>
</g>
<g id="SPINDELWEBBEN">
	<text transform="matrix(1.48 0 0 1 -0.0503 725.6191)" fill="#FFFFFF" font-family="'TimesNewRomanPSMT'" font-size="73.932">SPINDELWEBBEN</text>
</g>
</svg>
