<?xml version="1.0" encoding="utf-8"?>
<!-- Generator: Adobe Illustrator 16.0.0, SVG Export Plug-In . SVG Version: 6.00 Build 0)  -->
<!DOCTYPE svg PUBLIC "-//W3C//DTD SVG 1.1//EN" "http://www.w3.org/Graphics/SVG/1.1/DTD/svg11.dtd">
<svg version="1.1" id="Layer_1" xmlns="http://www.w3.org/2000/svg" xmlns:xlink="http://www.w3.org/1999/xlink" x="0px" y="0px"
	 width="908px" height="847px" viewBox="0 0 908 847" enable-background="new 0 0 908 847" xml:space="preserve">
<g id="Shape_13_copy_1_" enable-background="new    ">
	<g id="Shape_13_copy">
		<g>
			<path d="M565.082,404.399l-1.734,1.733l0.768-2.329c0,0-35.48-14.239-59.605-22.187c-10.512-3.464-17.588-4.648-21.121-5.054
				c4.441-4.902,11.504-13.536,17.201-24.364c14.855-28.246,36.279-54.915,36.279-54.915l-0.648-0.218
				c9.697-3.563,39.521-14.618,68.314-26.258c31.234-12.627,61.945-25.712,66.893-27.824l55.1,13.534c0,0-9.836-6.568-23.93-9.245
				c-16.727-3.177-30.797-9.245-30.797-9.245l-0.584,2.379l-0.92-2.272c0,0-33.078,16.706-67.725,30.711
				c-22.588,9.133-52.74,18.909-60.799,21.574c-7.246,2.396-10.787,4.903-10.787,4.903s-28.625,36.22-45.107,60.798
				c-1.885,2.809-3.438,5.377-4.738,7.709c-3.363-13.433-11.125-27.615-21.424-38.043c0.961-0.601,10.734-7.114,18.318-27.522
				c5.449-14.662,9.055-27.341,9.055-27.341l-2.191-1.096h2.941c0,0,1.963-52.556,1.963-102.966c0-47.046-1.963-92.179-1.963-92.179
				h-2.941l2.199-1.081c0,0-7.053-6.617-18.869-31.279C457.135,19.165,446.654,8.98,446.654,8.98s10.481,13.975,17.651,34.322
				c5.268,14.943,18.393,32.461,18.393,32.461l0.324-0.16c0.658,7.146,4.82,54.623,3.838,99.103
				c-0.428,19.475-1.273,40.84-2.072,58.378c-0.824,18.1-1.59,32.117-1.797,35.789l-0.285-0.144c0,0-7.02,15.601-14.477,30.516
				c-4.922,9.843-10.283,19.566-12.225,23.048c-4.465-3.898-9.319-7.073-14.437-9.214c3.084-7.44,9.921-27.642-1.275-38.836
				c-11.696-11.696-3.707,25.815-0.881,38c-4-1.423-8.141-2.21-12.37-2.21c-4.639,0-9.144,0.948-13.45,2.643
				c2.729-11.694,11.058-50.272-0.781-38.433c-11.397,11.398-4.106,32.128-1.112,39.225c-4.161,1.876-8.123,4.452-11.827,7.542
				c-2.069-3.718-7.271-13.179-12.055-22.746c-7.456-14.914-14.477-30.515-14.477-30.515l-0.286,0.144
				c-0.205-3.672-0.974-17.689-1.796-35.789c-0.798-17.54-1.643-38.903-2.074-58.378c-0.982-44.479,3.18-91.956,3.836-99.103
				l0.326,0.16c0,0,13.125-17.517,18.392-32.461c7.171-20.347,17.651-34.322,17.651-34.322s-10.48,10.185-21.574,33.341
				C376,66.003,368.944,72.619,368.944,72.619l2.202,1.083h-2.942c0,0-1.961,45.132-1.961,92.179
				c0,50.41,1.961,102.965,1.961,102.965h2.942l-2.193,1.097c0,0,3.609,12.68,9.058,27.341c6.995,18.827,15.86,25.831,17.945,27.275
				c-11.885,11.669-20.533,28.566-23.595,43.8c-1.621-3.35-3.893-7.456-7.099-12.238c-16.483-24.579-45.108-60.798-45.108-60.798
				s-3.542-2.507-10.788-4.903c-8.058-2.665-38.208-12.442-60.798-21.574c-34.646-14.005-67.725-30.711-67.725-30.711l-0.919,2.273
				l-0.584-2.379c0,0-14.07,6.066-30.796,9.245c-14.096,2.676-23.931,9.245-23.931,9.245l55.101-13.534
				c4.945,2.111,35.655,15.195,66.892,27.823c28.793,11.641,58.616,22.696,68.315,26.258l-0.652,0.218
				c0,0,21.428,26.669,36.283,54.915c6.06,11.522,13.667,20.558,18.018,25.255c-3.175,0.31-10.536,1.387-21.94,5.145
				c-24.125,7.946-59.604,22.186-59.604,22.186l0.767,2.329l-1.735-1.734c0,0-11.443,13.931-24.743,27.231
				c-14.588,14.588-31.38,30.397-31.38,30.397h0.981l0.98,41.187c0,0,0.231-3.461,1.727-17.013c1.25-11.3-1.726-24.174-1.726-24.174
				h0.981c0,0,13.67-10.727,28.438-25.495c12.268-12.27,26.348-26.751,28.04-28.491c3.13-1.628,15.077-7.631,26.875-10.734
				c9.88-2.599,49.903-14.573,55.117-16.134c1.59,11.228,12.635,36.948,28.397,53.096c-8.32,4.433-26.5,14.99-54.096,35.606
				c-43.962,32.842-108.849,88.255-108.849,88.255s-1.765,10.456-2.362,28.001c-0.25,7.371,0.512,16.799,0.4,25.933
				c-0.539,43.666,1.962,127.481,1.962,127.481h1.961c0,0,12.892,11.143,29.418,25.496c22.855,19.849,53.435,46.389,69.589,60.935
				c7.259,6.536,10.822,10.65,10.822,10.65s-7.798-11.748-26.325-26.724c-10.339-8.356-80.562-70.358-80.562-70.358
				s-2.712-37.75-2.942-63.741c-0.416-46.889,2.942-104.563,2.942-114.271c0-0.943,0.98-1.44,0.98-1.44l-2.941-0.98
				c0.23,0.307,24.15-16.627,67.663-49.031c15.106-11.25,38.428-26.146,57.907-40.505c-13.16,19.49-21.245,47.186-21.624,82.671
				c-0.371,34.799,37.319,103.947,83.353,103.947c46.035,0,83.353-69.148,83.353-103.947c0-31.269-6.256-56.486-16.801-75.373
				c17.373,12.316,36.262,24.583,49.162,34.188c43.51,32.404,67.432,49.338,67.662,49.031l-2.943,0.98c0,0,0.982,0.499,0.982,1.441
				c0,9.706,3.357,67.382,2.941,114.271c-0.23,25.99-2.941,63.74-2.941,63.74s-70.223,62.003-80.563,70.359
				c-18.525,14.977-26.326,26.723-26.326,26.723s3.564-4.115,10.822-10.651c16.154-14.547,46.734-41.086,69.588-60.933
				c16.529-14.354,29.42-25.498,29.42-25.498h1.963c0,0,2.496-83.817,1.959-127.48c-0.113-9.132,0.65-18.563,0.4-25.933
				c-0.598-17.547-2.359-28.001-2.359-28.001s-64.889-55.414-108.852-88.256c-25.727-19.219-43.277-29.701-52.279-34.627
				c16.729-15.999,28.488-43.554,30.434-55.177c10.727,3.206,43.445,12.96,52.246,15.276c11.799,3.104,23.746,9.106,26.875,10.734
				c1.691,1.74,15.771,16.221,28.041,28.491c14.766,14.769,28.436,25.497,28.436,25.497h0.982c0,0-2.977,12.873-1.727,24.174
				c1.494,13.55,1.727,17.011,1.727,17.011l0.98-41.185h0.98c0,0-16.791-15.812-31.379-30.4
				C576.525,418.328,565.082,404.399,565.082,404.399z M404.786,439.925c-0.449,0.146-0.898,0.294-1.345,0.447
				c0.328-0.277,0.638-0.543,0.932-0.792C404.51,439.697,404.648,439.811,404.786,439.925z"/>
		</g>
	</g>
</g>
<g id="SPINDELWEBBEN">
	<text transform="matrix(1.48 0 0 1 0 722.876)" font-family="'TimesNewRomanPSMT'" font-size="73.5467">SPINDELWEBBEN</text>
</g>
</svg>
